<svg width="38" height="24" viewBox="0 0 38 24" fill="none" xmlns="http://www.w3.org/2000/svg">
<path d="M29.2233 7C28.5448 7 27.9947 7.35369 27.9947 7.79V16.63C27.9947 18.4912 25.6481 20 22.7534 20H13.9194C11.0247 20 8.67805 18.4912 8.67805 16.63V7.79C8.67805 7.35369 8.12795 7 7.44938 7C6.7708 7 6.2207 7.35369 6.2207 7.79V16.63C6.26335 19.3719 9.73251 21.5801 13.9971 21.58H22.8311C27.0654 21.5529 30.4876 19.3525 30.5298 16.63V7.79C30.5305 7.57152 30.3904 7.36262 30.1429 7.21294C29.8953 7.06326 29.5625 6.98617 29.2233 7Z" fill="#F50E0E"/>
<path fill-rule="evenodd" clip-rule="evenodd" d="M29.2233 5.58H7.44938C6.7708 5.58 6.2207 5.22631 6.2207 4.79C6.2207 4.35369 6.7708 4 7.44938 4H11.5709L13.4061 2.72C14.1077 2.26141 15.0652 2.00218 16.0656 2H20.6071C21.5929 1.99999 22.5384 2.25179 23.2355 2.7L25.1018 4H29.2233C29.9019 4 30.452 4.35369 30.452 4.79C30.452 5.22631 29.9019 5.58 29.2233 5.58ZM20.6071 3.58H16.0656C15.7547 3.58007 15.4551 3.65499 15.2258 3.79L14.9303 3.99H21.7424L21.4469 3.79C21.2193 3.65326 20.9186 3.57807 20.6071 3.58Z" fill="#F50E0E"/>
<path d="M12.504 8.79V11.79C12.504 12.2042 13.0263 12.54 13.6705 12.54C14.3147 12.54 14.837 12.2042 14.837 11.79V8.79C14.837 8.37579 14.3147 8.04 13.6705 8.04C13.0263 8.04 12.504 8.37579 12.504 8.79Z" fill="#F50E0E"/>
<path d="M17.1699 8.79V16.79C17.1699 17.2042 17.6921 17.54 18.3364 17.54C18.9806 17.54 19.5028 17.2042 19.5028 16.79V8.79C19.5028 8.37579 18.9806 8.04 18.3364 8.04C17.6921 8.04 17.1699 8.37579 17.1699 8.79Z" fill="#F50E0E"/>
<path d="M21.8357 8.79V11.79C21.8357 12.2042 22.358 12.54 23.0022 12.54C23.6464 12.54 24.1687 12.2042 24.1687 11.79V8.79C24.1687 8.37579 23.6464 8.04 23.0022 8.04C22.358 8.04 21.8357 8.37579 21.8357 8.79Z" fill="#F50E0E"/>
</svg>
