<svg width="17" height="19" viewBox="0 0 17 19" fill="none" xmlns="http://www.w3.org/2000/svg">
<path d="M13.8581 0.101642C13.1946 -0.22403 9.83128 0.147954 7.40521 2.47427C3.58443 6.2903 3.67617 11.3158 3.67617 11.3158C3.67617 11.3158 3.55029 11.8333 3.01176 11.083C1.83376 9.58235 2.45097 6.1285 2.51984 5.64697C2.61722 4.9698 2.18526 4.94902 2.00506 5.17345C-2.25064 11.0828 1.593 15.9221 4.1102 17.4581C7.05639 19.2557 12.8695 19.2551 15.1854 14.1545C18.0684 7.80228 14.689 0.509251 13.8581 0.101642Z" fill="#79AC6A"/>
<path d="M13.7911 5.70637C14.0865 3.72533 14.0883 1.81701 13.8454 0.0975148C13.1596 -0.219548 9.81832 0.159265 7.40443 2.4743C3.58365 6.29033 3.67538 11.3158 3.67538 11.3158C3.67538 11.3158 3.54951 11.8333 3.01098 11.0831C1.83298 9.58237 2.45018 6.12853 2.51905 5.647C2.61643 4.96983 2.18448 4.94905 2.00427 5.17348C-0.567851 8.74489 -0.179835 11.9238 1.08396 14.2207C2.34895 15.579 3.78849 16.4717 5.12176 16.6706C8.92176 17.2376 12.8025 12.3288 13.7911 5.70637Z" fill="#CAE5C2"/>
<path d="M13.7914 5.70637C14.0868 3.72532 14.0886 1.81701 13.8458 0.0975094C13.16 -0.219553 10.4985 0.881853 8.0843 3.19748C4.26352 7.01321 3.67571 11.3158 3.67571 11.3158C3.67571 11.3158 3.54983 11.8333 3.0113 11.0831C1.8333 9.58237 2.23824 6.98976 2.30741 6.50853C2.40508 5.83106 1.97283 5.81057 1.79263 6.03501C-0.779198 9.60642 -0.179213 11.9241 1.08488 14.2207C2.34986 15.5789 3.78941 16.4717 5.12268 16.6706C8.92208 17.2376 12.8028 12.3288 13.7914 5.70637Z" fill="#99C08E"/>
</svg>
