<svg width="14" height="14" viewBox="0 0 14 14" fill="none" xmlns="http://www.w3.org/2000/svg">
<path fill-rule="evenodd" clip-rule="evenodd" d="M1.54938 7.79136C1.54938 4.89187 3.89989 2.54136 6.79939 2.54136C9.69888 2.54136 12.0494 4.89187 12.0494 7.79136C12.0494 10.6909 9.69888 13.0414 6.79939 13.0414C3.89989 13.0414 1.54938 10.6909 1.54938 7.79136ZM2.42438 7.79136C2.42438 10.2076 4.38314 12.1664 6.79939 12.1664C7.95971 12.1664 9.07251 11.7054 9.89298 10.885C10.7134 10.0645 11.1744 8.95169 11.1744 7.79136C11.1744 5.37512 9.21563 3.41636 6.79939 3.41636C4.38314 3.41636 2.42438 5.37512 2.42438 7.79136Z" fill="#414141"/>
<path d="M5.42855 5.56886C5.25617 5.40824 4.98755 5.41298 4.82094 5.57959C4.65433 5.74619 4.64959 6.01482 4.81022 6.1872L6.36189 7.73886V10.1247C6.36189 10.3663 6.55776 10.5622 6.79939 10.5622C7.04101 10.5622 7.23689 10.3663 7.23689 10.1247V7.55803C7.23678 7.44204 7.19062 7.33083 7.10855 7.24886L5.42855 5.56886Z" fill="#414141"/>
<path d="M12.3586 3.41636C11.6384 2.45591 10.6818 1.69827 9.58189 1.2172C9.47454 1.16854 9.3521 1.16525 9.2423 1.20807C9.13249 1.2509 9.04461 1.33621 8.99855 1.4447C8.94818 1.55182 8.94401 1.67493 8.98703 1.78522C9.03004 1.89551 9.11645 1.98329 9.22605 2.02803C10.1868 2.45074 11.0225 3.11368 11.6527 3.95303C11.7353 4.0632 11.865 4.12803 12.0027 4.12803C12.0974 4.12846 12.1897 4.09771 12.2652 4.04053C12.3624 3.97164 12.4273 3.86613 12.4449 3.74833C12.4625 3.63054 12.4313 3.51066 12.3586 3.41636Z" fill="#414141"/>
<path d="M1.94022 3.94136C2.57044 3.10202 3.40615 2.43907 4.36688 2.01636C4.47648 1.97163 4.5629 1.88384 4.60591 1.77356C4.64892 1.66327 4.64476 1.54016 4.59438 1.43303C4.54833 1.32454 4.46044 1.23923 4.35064 1.19641C4.24084 1.15358 4.1184 1.15687 4.01105 1.20553C2.91195 1.69072 1.95732 2.45242 1.24022 3.41636C1.11421 3.60419 1.15215 3.8571 1.32772 3.9997C1.40325 4.05688 1.49549 4.08762 1.59022 4.0872C1.72298 4.09429 1.85177 4.04063 1.94022 3.94136Z" fill="#414141"/>
</svg>
